<svg xmlns="http://www.w3.org/2000/svg" viewBox="0 0 800 450" role="img" aria-hidden="true">
<defs>
<linearGradient id="bg" x1="0" y1="0" x2="1" y2="1">
<stop offset="0" stop-color="#0b1e3d"/><stop offset="1" stop-color="#081428"/>
</linearGradient>
<linearGradient id="cy" x1="0" y1="0" x2="1" y2="1">
<stop offset="0" stop-color="#5cc0f2"/><stop offset="1" stop-color="#35a7e6"/>
</linearGradient>
<linearGradient id="or" x1="0" y1="0" x2="1" y2="1">
<stop offset="0" stop-color="#ff6a3d"/><stop offset="1" stop-color="#f0522a"/>
</linearGradient>
<radialGradient id="glow" cx="50%" cy="45%" r="60%">
<stop offset="0" stop-color="#35a7e6" stop-opacity=".28"/><stop offset="1" stop-color="#35a7e6" stop-opacity="0"/>
</radialGradient>
<pattern id="dots" width="26" height="26" patternUnits="userSpaceOnUse">
<circle cx="1.5" cy="1.5" r="1.5" fill="#ffffff" opacity=".05"/>
</pattern>
</defs>
<rect width="800" height="450" fill="url(#bg)"/>
<rect width="800" height="450" fill="url(#dots)"/>
<rect width="800" height="450" fill="url(#glow)"/>
<path d="M0 0 H150 A40 40 0 0 1 110 40 H0 Z" fill="#35a7e6" opacity=".10"/>
<path d="M800 450 H650 A40 40 0 0 1 690 410 H800 Z" fill="#f0522a" opacity=".12"/>

<g opacity=".35">
<path d="M250 170 a34 34 0 1 1 68 0 c0 26 -34 58 -34 58 c0 0 -34 -32 -34 -58Z" fill="url(#cy)"/>
<circle cx="284" cy="170" r="13" fill="#0b1e3d"/>
</g>
<g opacity=".35">
<path d="M470 150 a34 34 0 1 1 68 0 c0 26 -34 58 -34 58 c0 0 -34 -32 -34 -58Z" fill="url(#cy)"/>
<circle cx="504" cy="150" r="13" fill="#0b1e3d"/>
</g>
<g>
<path d="M360 250 a44 44 0 1 1 88 0 c0 34 -44 74 -44 74 c0 0 -44 -40 -44 -74Z" fill="url(#or)"/>
<circle cx="404" cy="250" r="17" fill="#0b1e3d"/>
</g>
<g stroke="#5cc0f2" stroke-width="9" fill="none">
<circle cx="300" cy="185" r="46" fill="#081428" fill-opacity=".55"/>
<line x1="334" y1="219" x2="372" y2="257" stroke-linecap="round"/>
</g>

</svg>