<svg xmlns="http://www.w3.org/2000/svg" viewBox="0 0 800 450" role="img" aria-hidden="true">
<defs>
<linearGradient id="bg" x1="0" y1="0" x2="1" y2="1">
<stop offset="0" stop-color="#0b1e3d"/><stop offset="1" stop-color="#081428"/>
</linearGradient>
<linearGradient id="cy" x1="0" y1="0" x2="1" y2="1">
<stop offset="0" stop-color="#5cc0f2"/><stop offset="1" stop-color="#35a7e6"/>
</linearGradient>
<linearGradient id="or" x1="0" y1="0" x2="1" y2="1">
<stop offset="0" stop-color="#ff6a3d"/><stop offset="1" stop-color="#f0522a"/>
</linearGradient>
<radialGradient id="glow" cx="50%" cy="45%" r="60%">
<stop offset="0" stop-color="#35a7e6" stop-opacity=".28"/><stop offset="1" stop-color="#35a7e6" stop-opacity="0"/>
</radialGradient>
<pattern id="dots" width="26" height="26" patternUnits="userSpaceOnUse">
<circle cx="1.5" cy="1.5" r="1.5" fill="#ffffff" opacity=".05"/>
</pattern>
</defs>
<rect width="800" height="450" fill="url(#bg)"/>
<rect width="800" height="450" fill="url(#dots)"/>
<rect width="800" height="450" fill="url(#glow)"/>
<path d="M0 0 H150 A40 40 0 0 1 110 40 H0 Z" fill="#35a7e6" opacity=".10"/>
<path d="M800 450 H650 A40 40 0 0 1 690 410 H800 Z" fill="#f0522a" opacity=".12"/>

<path d="M330 210 a56 56 0 1 1 112 0 c0 44 -56 96 -56 96 c0 0 -56 -52 -56 -96Z" fill="url(#cy)"/>
<circle cx="386" cy="210" r="24" fill="#0b1e3d"/>
<g transform="translate(470 250)">
<path d="M6 4 c0 44 40 84 84 84 l0 -22 c-8 -8 -20 -10 -30 -6 l-16 -16 c8 -10 8 -22 0 -32 l-16 -16 c4 -10 2 -22 -6 -30 Z" fill="url(#or)"/>
</g>
<g stroke="#ffc24b" stroke-width="5" fill="none" opacity=".8">
<path d="M560 210 a40 40 0 0 1 0 60"/>
<path d="M580 195 a66 66 0 0 1 0 90"/>
</g>

</svg>