<svg xmlns="http://www.w3.org/2000/svg" viewBox="0 0 800 450" role="img" aria-hidden="true">
<defs>
<linearGradient id="bg" x1="0" y1="0" x2="1" y2="1">
<stop offset="0" stop-color="#0b1e3d"/><stop offset="1" stop-color="#081428"/>
</linearGradient>
<linearGradient id="cy" x1="0" y1="0" x2="1" y2="1">
<stop offset="0" stop-color="#5cc0f2"/><stop offset="1" stop-color="#35a7e6"/>
</linearGradient>
<linearGradient id="or" x1="0" y1="0" x2="1" y2="1">
<stop offset="0" stop-color="#ff6a3d"/><stop offset="1" stop-color="#f0522a"/>
</linearGradient>
<radialGradient id="glow" cx="50%" cy="45%" r="60%">
<stop offset="0" stop-color="#35a7e6" stop-opacity=".28"/><stop offset="1" stop-color="#35a7e6" stop-opacity="0"/>
</radialGradient>
<pattern id="dots" width="26" height="26" patternUnits="userSpaceOnUse">
<circle cx="1.5" cy="1.5" r="1.5" fill="#ffffff" opacity=".05"/>
</pattern>
</defs>
<rect width="800" height="450" fill="url(#bg)"/>
<rect width="800" height="450" fill="url(#dots)"/>
<rect width="800" height="450" fill="url(#glow)"/>
<path d="M0 0 H150 A40 40 0 0 1 110 40 H0 Z" fill="#35a7e6" opacity=".10"/>
<path d="M800 450 H650 A40 40 0 0 1 690 410 H800 Z" fill="#f0522a" opacity=".12"/>

<rect x="396" y="120" width="8" height="180" rx="4" fill="#9fb4d6"/>
<rect x="330" y="300" width="140" height="16" rx="8" fill="#9fb4d6"/>
<line x1="250" y1="150" x2="550" y2="150" stroke="#9fb4d6" stroke-width="8" stroke-linecap="round"/>
<g stroke="#35a7e6" stroke-width="3">
<line x1="250" y1="150" x2="250" y2="205"/><line x1="250" y1="150" x2="310" y2="205"/>
</g>
<path d="M235 205 h90 l-14 40 h-62 Z" fill="url(#or)"/>
<g stroke="#35a7e6" stroke-width="3">
<line x1="550" y1="150" x2="490" y2="195"/><line x1="550" y1="150" x2="550" y2="195"/>
</g>
<path d="M478 195 h84 l-13 38 h-58 Z" fill="url(#cy)"/>
<circle cx="400" cy="120" r="14" fill="#ffc24b"/>

</svg>