<svg xmlns="http://www.w3.org/2000/svg" viewBox="0 0 800 450" role="img" aria-hidden="true">
<defs>
<linearGradient id="bg" x1="0" y1="0" x2="1" y2="1">
<stop offset="0" stop-color="#0b1e3d"/><stop offset="1" stop-color="#081428"/>
</linearGradient>
<linearGradient id="cy" x1="0" y1="0" x2="1" y2="1">
<stop offset="0" stop-color="#5cc0f2"/><stop offset="1" stop-color="#35a7e6"/>
</linearGradient>
<linearGradient id="or" x1="0" y1="0" x2="1" y2="1">
<stop offset="0" stop-color="#ff6a3d"/><stop offset="1" stop-color="#f0522a"/>
</linearGradient>
<radialGradient id="glow" cx="50%" cy="45%" r="60%">
<stop offset="0" stop-color="#35a7e6" stop-opacity=".28"/><stop offset="1" stop-color="#35a7e6" stop-opacity="0"/>
</radialGradient>
<pattern id="dots" width="26" height="26" patternUnits="userSpaceOnUse">
<circle cx="1.5" cy="1.5" r="1.5" fill="#ffffff" opacity=".05"/>
</pattern>
</defs>
<rect width="800" height="450" fill="url(#bg)"/>
<rect width="800" height="450" fill="url(#dots)"/>
<rect width="800" height="450" fill="url(#glow)"/>
<path d="M0 0 H150 A40 40 0 0 1 110 40 H0 Z" fill="#35a7e6" opacity=".10"/>
<path d="M800 450 H650 A40 40 0 0 1 690 410 H800 Z" fill="#f0522a" opacity=".12"/>

<g stroke="#35a7e6" stroke-width="3" opacity=".55">
<line x1="400" y1="225" x2="400" y2="110"/><line x1="400" y1="225" x2="500" y2="165"/>
<line x1="400" y1="225" x2="510" y2="285"/><line x1="400" y1="225" x2="400" y2="345"/>
<line x1="400" y1="225" x2="290" y2="285"/><line x1="400" y1="225" x2="300" y2="165"/>
</g>
<g fill="url(#cy)">
<circle cx="400" cy="110" r="18"/><circle cx="500" cy="165" r="18"/>
<circle cx="510" cy="285" r="18"/><circle cx="400" cy="345" r="18"/>
<circle cx="290" cy="285" r="18"/><circle cx="300" cy="165" r="18"/>
</g>
<circle cx="400" cy="225" r="46" fill="url(#or)"/>
<path d="M382 225 h36 M400 207 v36" stroke="#fff" stroke-width="6" stroke-linecap="round"/>

</svg>