<svg xmlns="http://www.w3.org/2000/svg" viewBox="0 0 800 450" role="img" aria-hidden="true" data-slug="prix-tarif-agence-seo-2026">
<defs>
<linearGradient id="bg" x1="0" y1="0" x2="1" y2="1">
<stop offset="0" stop-color="#0b1e3d"/><stop offset="1" stop-color="#081428"/>
</linearGradient>
<linearGradient id="cy" x1="0" y1="0" x2="1" y2="1">
<stop offset="0" stop-color="#5cc0f2"/><stop offset="1" stop-color="#35a7e6"/>
</linearGradient>
<linearGradient id="or" x1="0" y1="0" x2="1" y2="1">
<stop offset="0" stop-color="#ff6a3d"/><stop offset="1" stop-color="#f0522a"/>
</linearGradient>
<radialGradient id="glow" cx="50%" cy="45%" r="60%">
<stop offset="0" stop-color="#35a7e6" stop-opacity=".28"/><stop offset="1" stop-color="#35a7e6" stop-opacity="0"/>
</radialGradient>
<pattern id="dots" width="26" height="26" patternUnits="userSpaceOnUse">
<circle cx="1.5" cy="1.5" r="1.5" fill="#ffffff" opacity=".05"/>
</pattern>
</defs>
<rect width="800" height="450" fill="url(#bg)"/>
<rect width="800" height="450" fill="url(#dots)"/>
<rect width="800" height="450" fill="url(#glow)"/>
<path d="M0 0 H150 A40 40 0 0 1 110 40 H0 Z" fill="#35a7e6" opacity=".10"/>
<path d="M800 450 H650 A40 40 0 0 1 690 410 H800 Z" fill="#f0522a" opacity=".12"/>

<!-- Pricing bars -->
<rect x="220" y="280" width="70" height="70" rx="10" fill="#1a3558" stroke="#9fb4d6" stroke-width="3"/>
<rect x="320" y="220" width="70" height="130" rx="10" fill="url(#cy)"/>
<rect x="420" y="160" width="70" height="190" rx="10" fill="url(#or)"/>
<rect x="520" y="200" width="70" height="150" rx="10" fill="#35a7e6" opacity=".75"/>
<!-- baseline -->
<line x1="200" y1="360" x2="620" y2="360" stroke="#9fb4d6" stroke-width="6" stroke-linecap="round"/>
<!-- euro badge -->
<circle cx="400" cy="120" r="42" fill="#0f2748" stroke="#ffc24b" stroke-width="5"/>
<text x="400" y="136" text-anchor="middle" font-family="Montserrat, Arial, sans-serif" font-size="42" font-weight="700" fill="#ffc24b">€</text>
</svg>
