<svg xmlns="http://www.w3.org/2000/svg" viewBox="0 0 800 450" role="img" aria-hidden="true">
<defs>
<linearGradient id="bg" x1="0" y1="0" x2="1" y2="1">
<stop offset="0" stop-color="#0b1e3d"/><stop offset="1" stop-color="#081428"/>
</linearGradient>
<linearGradient id="cy" x1="0" y1="0" x2="1" y2="1">
<stop offset="0" stop-color="#5cc0f2"/><stop offset="1" stop-color="#35a7e6"/>
</linearGradient>
<linearGradient id="or" x1="0" y1="0" x2="1" y2="1">
<stop offset="0" stop-color="#ff6a3d"/><stop offset="1" stop-color="#f0522a"/>
</linearGradient>
<radialGradient id="glow" cx="50%" cy="45%" r="60%">
<stop offset="0" stop-color="#35a7e6" stop-opacity=".28"/><stop offset="1" stop-color="#35a7e6" stop-opacity="0"/>
</radialGradient>
<pattern id="dots" width="26" height="26" patternUnits="userSpaceOnUse">
<circle cx="1.5" cy="1.5" r="1.5" fill="#ffffff" opacity=".05"/>
</pattern>
</defs>
<rect width="800" height="450" fill="url(#bg)"/>
<rect width="800" height="450" fill="url(#dots)"/>
<rect width="800" height="450" fill="url(#glow)"/>
<path d="M0 0 H150 A40 40 0 0 1 110 40 H0 Z" fill="#35a7e6" opacity=".10"/>
<path d="M800 450 H650 A40 40 0 0 1 690 410 H800 Z" fill="#f0522a" opacity=".12"/>

<path d="M300 165 h200 a30 30 0 0 1 30 30 v56 a30 30 0 0 1 -30 30 h-118 l-42 36 v-36 h-40 a30 30 0 0 1 -30 -30 v-56 a30 30 0 0 1 30 -30Z" fill="url(#cy)"/>
<g fill="#ffc24b">
<path d="M330 205 l7 15 l16 2 l-12 11 l3 16 l-14 -8 l-14 8 l3 -16 l-12 -11 l16 -2 Z"/>
<path d="M375 205 l7 15 l16 2 l-12 11 l3 16 l-14 -8 l-14 8 l3 -16 l-12 -11 l16 -2 Z"/>
<path d="M420 205 l7 15 l16 2 l-12 11 l3 16 l-14 -8 l-14 8 l3 -16 l-12 -11 l16 -2 Z"/>
<path d="M465 205 l7 15 l16 2 l-12 11 l3 16 l-14 -8 l-14 8 l3 -16 l-12 -11 l16 -2 Z"/>
</g>
<path d="M510 205 l7 15 l16 2 l-12 11 l3 16 l-14 -8 l-14 8 l3 -16 l-12 -11 l16 -2 Z" fill="#ffc24b" opacity=".4"/>

</svg>