<svg xmlns="http://www.w3.org/2000/svg" viewBox="0 0 800 450" role="img" aria-hidden="true">
<defs>
<linearGradient id="bg" x1="0" y1="0" x2="1" y2="1">
<stop offset="0" stop-color="#0b1e3d"/><stop offset="1" stop-color="#081428"/>
</linearGradient>
<linearGradient id="cy" x1="0" y1="0" x2="1" y2="1">
<stop offset="0" stop-color="#5cc0f2"/><stop offset="1" stop-color="#35a7e6"/>
</linearGradient>
<linearGradient id="or" x1="0" y1="0" x2="1" y2="1">
<stop offset="0" stop-color="#ff6a3d"/><stop offset="1" stop-color="#f0522a"/>
</linearGradient>
<radialGradient id="glow" cx="50%" cy="45%" r="60%">
<stop offset="0" stop-color="#35a7e6" stop-opacity=".28"/><stop offset="1" stop-color="#35a7e6" stop-opacity="0"/>
</radialGradient>
<pattern id="dots" width="26" height="26" patternUnits="userSpaceOnUse">
<circle cx="1.5" cy="1.5" r="1.5" fill="#ffffff" opacity=".05"/>
</pattern>
</defs>
<rect width="800" height="450" fill="url(#bg)"/>
<rect width="800" height="450" fill="url(#dots)"/>
<rect width="800" height="450" fill="url(#glow)"/>
<path d="M0 0 H150 A40 40 0 0 1 110 40 H0 Z" fill="#35a7e6" opacity=".10"/>
<path d="M800 450 H650 A40 40 0 0 1 690 410 H800 Z" fill="#f0522a" opacity=".12"/>

<line x1="220" y1="330" x2="580" y2="330" stroke="#9fb4d6" stroke-width="4" stroke-linecap="round" opacity=".5"/>
<circle cx="300" cy="330" r="16" fill="url(#cy)" opacity=".5"/>
<circle cx="360" cy="330" r="16" fill="url(#cy)" opacity=".5"/>
<path d="M250 330 L470 210" stroke="url(#or)" stroke-width="10" stroke-linecap="round" fill="none"/>
<path d="M470 210 l-40 4 l24 -32 Z" fill="url(#or)"/>
<circle cx="470" cy="205" r="20" fill="url(#or)"/>
<path d="M436 150 l40 0 l0 40 Z" fill="#ffc24b"/>
<rect x="470" y="140" width="6" height="70" fill="#ffc24b"/>

</svg>