<svg xmlns="http://www.w3.org/2000/svg" viewBox="0 0 800 450" role="img" aria-hidden="true" data-slug="c-est-quoi-une-agence-seo">
<defs>
<linearGradient id="bg" x1="0" y1="0" x2="1" y2="1">
<stop offset="0" stop-color="#0b1e3d"/><stop offset="1" stop-color="#081428"/>
</linearGradient>
<linearGradient id="cy" x1="0" y1="0" x2="1" y2="1">
<stop offset="0" stop-color="#5cc0f2"/><stop offset="1" stop-color="#35a7e6"/>
</linearGradient>
<linearGradient id="or" x1="0" y1="0" x2="1" y2="1">
<stop offset="0" stop-color="#ff6a3d"/><stop offset="1" stop-color="#f0522a"/>
</linearGradient>
<radialGradient id="glow" cx="50%" cy="42%" r="58%">
<stop offset="0" stop-color="#35a7e6" stop-opacity=".28"/><stop offset="1" stop-color="#35a7e6" stop-opacity="0"/>
</radialGradient>
<pattern id="dots" width="26" height="26" patternUnits="userSpaceOnUse">
<circle cx="1.5" cy="1.5" r="1.5" fill="#ffffff" opacity=".05"/>
</pattern>
</defs>
<rect width="800" height="450" fill="url(#bg)"/>
<rect width="800" height="450" fill="url(#dots)"/>
<rect width="800" height="450" fill="url(#glow)"/>
<path d="M0 0 H150 A40 40 0 0 1 110 40 H0 Z" fill="#35a7e6" opacity=".10"/>
<path d="M800 450 H650 A40 40 0 0 1 690 410 H800 Z" fill="#f0522a" opacity=".12"/>

<!-- Agency building -->
<rect x="220" y="150" width="260" height="200" rx="14" fill="#0f2748" stroke="#9fb4d6" stroke-width="4"/>
<rect x="220" y="150" width="260" height="48" rx="14" fill="url(#or)"/>
<rect x="220" y="178" width="260" height="20" fill="url(#or)"/>
<!-- windows -->
<rect x="250" y="220" width="48" height="40" rx="6" fill="url(#cy)" opacity=".9"/>
<rect x="326" y="220" width="48" height="40" rx="6" fill="#1a3558" stroke="#9fb4d6" stroke-width="3"/>
<rect x="402" y="220" width="48" height="40" rx="6" fill="url(#cy)" opacity=".9"/>
<rect x="250" y="280" width="48" height="40" rx="6" fill="#1a3558" stroke="#9fb4d6" stroke-width="3"/>
<rect x="326" y="280" width="48" height="40" rx="6" fill="url(#cy)" opacity=".9"/>
<rect x="402" y="280" width="48" height="40" rx="6" fill="#1a3558" stroke="#9fb4d6" stroke-width="3"/>
<!-- door -->
<rect x="330" y="330" width="40" height="20" rx="4" fill="#9fb4d6"/>

<!-- SEO chart panel -->
<rect x="520" y="170" width="160" height="180" rx="16" fill="#0f2748" stroke="#9fb4d6" stroke-width="4"/>
<rect x="548" y="290" width="28" height="40" rx="6" fill="#9fb4d6" opacity=".55"/>
<rect x="586" y="250" width="28" height="80" rx="6" fill="url(#cy)"/>
<rect x="624" y="210" width="28" height="120" rx="6" fill="url(#or)"/>
<circle cx="600" cy="150" r="22" fill="#ffc24b"/>
<path d="M592 150 l6 6 12-14" fill="none" stroke="#0b1e3d" stroke-width="4" stroke-linecap="round" stroke-linejoin="round"/>
</svg>
