<svg xmlns="http://www.w3.org/2000/svg" viewBox="0 0 800 450" role="img" aria-hidden="true" data-slug="comment-choisir-agence-seo-paris">
<defs>
<linearGradient id="bg" x1="0" y1="0" x2="1" y2="1">
<stop offset="0" stop-color="#0b1e3d"/><stop offset="1" stop-color="#081428"/>
</linearGradient>
<linearGradient id="cy" x1="0" y1="0" x2="1" y2="1">
<stop offset="0" stop-color="#5cc0f2"/><stop offset="1" stop-color="#35a7e6"/>
</linearGradient>
<linearGradient id="or" x1="0" y1="0" x2="1" y2="1">
<stop offset="0" stop-color="#ff6a3d"/><stop offset="1" stop-color="#f0522a"/>
</linearGradient>
<radialGradient id="glow" cx="50%" cy="45%" r="60%">
<stop offset="0" stop-color="#35a7e6" stop-opacity=".28"/><stop offset="1" stop-color="#35a7e6" stop-opacity="0"/>
</radialGradient>
<pattern id="dots" width="26" height="26" patternUnits="userSpaceOnUse">
<circle cx="1.5" cy="1.5" r="1.5" fill="#ffffff" opacity=".05"/>
</pattern>
</defs>
<rect width="800" height="450" fill="url(#bg)"/>
<rect width="800" height="450" fill="url(#dots)"/>
<rect width="800" height="450" fill="url(#glow)"/>
<path d="M0 0 H150 A40 40 0 0 1 110 40 H0 Z" fill="#35a7e6" opacity=".10"/>
<path d="M800 450 H650 A40 40 0 0 1 690 410 H800 Z" fill="#f0522a" opacity=".12"/>

<!-- Checklist clipboard -->
<rect x="250" y="90" width="300" height="280" rx="18" fill="#0f2748" stroke="#9fb4d6" stroke-width="4"/>
<rect x="320" y="78" width="160" height="28" rx="10" fill="url(#cy)"/>
<!-- rows -->
<rect x="290" y="150" width="36" height="36" rx="8" fill="url(#or)"/>
<path d="M298 168 l8 8 16-18" fill="none" stroke="#fff" stroke-width="4" stroke-linecap="round" stroke-linejoin="round"/>
<rect x="344" y="158" width="160" height="12" rx="6" fill="#9fb4d6" opacity=".85"/>
<rect x="344" y="176" width="110" height="8" rx="4" fill="#9fb4d6" opacity=".45"/>

<rect x="290" y="220" width="36" height="36" rx="8" fill="url(#cy)"/>
<path d="M298 238 l8 8 16-18" fill="none" stroke="#0b1e3d" stroke-width="4" stroke-linecap="round" stroke-linejoin="round"/>
<rect x="344" y="228" width="160" height="12" rx="6" fill="#9fb4d6" opacity=".85"/>
<rect x="344" y="246" width="130" height="8" rx="4" fill="#9fb4d6" opacity=".45"/>

<rect x="290" y="290" width="36" height="36" rx="8" fill="#1a3558" stroke="#9fb4d6" stroke-width="3"/>
<rect x="344" y="298" width="160" height="12" rx="6" fill="#9fb4d6" opacity=".55"/>
<rect x="344" y="316" width="90" height="8" rx="4" fill="#9fb4d6" opacity=".35"/>
</svg>
